# xmcd
#
# Track frame offsets:
#	150
#	22746
#	45894
#	61428
#	80383
#	102705
#	121125
#	142464
#	162206
#	176727
#	192833
#
# Disc length: 2872 seconds
#
# Revision: 0
# Processed by: cddbd v1.4PL0 Copyright (c) Steve Scherf et al.
# Submitted via: dBpowerAMP V4.0
#
DISCID=900b360b
DTITLE=Dave Riley - Whiskey, Money and Women
DYEAR=2001
DGENRE=Blues
TTITLE0=Call My Job
TTITLE1=There She Comes
TTITLE2=Whiskey, Money and Women
TTITLE3=Tribute
TTITLE4=Down South
TTITLE5=Smokestack Lightning
TTITLE6=Angel Of Mercy
TTITLE7=I Want To Thank You Baby
TTITLE8=My Baby's Gone
TTITLE9=Casino Blues
TTITLE10=Imagine
EXTD=
EXTT0=
EXTT1=
EXTT2=
EXTT3=
EXTT4=
EXTT5=
EXTT6=
EXTT7=
EXTT8=
EXTT9=
EXTT10=
PLAYORDER=
